<?xml version="1.0" encoding="utf-8"?>
<!-- Generator: Adobe Illustrator 16.0.0, SVG Export Plug-In . SVG Version: 6.00 Build 0)  -->
<!DOCTYPE svg PUBLIC "-//W3C//DTD SVG 1.1//EN" "http://www.w3.org/Graphics/SVG/1.1/DTD/svg11.dtd">
<svg version="1.1" id="Layer_1" xmlns="http://www.w3.org/2000/svg" xmlns:xlink="http://www.w3.org/1999/xlink" x="0px" y="0px"
	 width="208.667px" height="208.667px" viewBox="0 0 208.667 208.667" enable-background="new 0 0 208.667 208.667"
	 xml:space="preserve">
<g>
	<path fill="#5B8EDC" d="M101.41,194.954c-4.083,0-8.198-0.27-12.329-0.818c-50.129-6.66-85.494-52.861-78.834-102.99
		c6.66-50.128,52.866-85.495,102.989-78.833c43.015,5.714,76.416,41.234,79.423,84.459l-11.393,0.792
		c-2.632-37.835-31.875-68.928-69.534-73.931c-43.88-5.827-84.334,25.131-90.165,69.017c-5.83,43.886,25.131,84.334,69.018,90.166
		c28.019,3.725,55.351-7.205,73.12-29.229l8.888,7.172C154.92,182.661,128.956,194.954,101.41,194.954z"/>
</g>
<path fill="#FFB602" d="M55.26,140.519H26.042v-9.174c0.617-0.309,1.016-0.771,1.196-1.388c0.179-0.617,0.269-1.388,0.269-2.312
	v-1.696v-23.744v-1.851c0-0.821-0.064-1.451-0.191-1.889c-0.129-0.435-0.424-0.835-0.887-1.194v-9.637h14.955v9.637
	c-0.617,0.359-1.016,0.951-1.195,1.772c-0.18,0.824-0.27,1.955-0.27,3.393v1.618v25.286c1.389,0,2.403-0.295,3.045-0.885
	c0.643-0.592,0.965-1.915,0.965-3.972v-9.714H55.26V140.519z"/>
<path fill="#FFB602" d="M71.296,140.519H57.419v-8.788c0.433-0.256,0.734-0.604,0.902-1.041c0.17-0.437,0.254-1.015,0.254-1.734
	v-2.005v-12.182c0-1.18-0.064-1.965-0.193-2.35c-0.129-0.386-0.449-0.887-0.963-1.504v-9.174h12.412v25.209
	c0,1.337,0.115,2.403,0.346,3.199c0.232,0.798,0.603,1.195,1.119,1.195V140.519z M69.831,92.953c0,2.056-0.592,3.623-1.773,4.702
	c-1.184,1.079-2.649,1.619-4.395,1.619c-1.644,0-3.033-0.616-4.162-1.85c-1.133-1.234-1.697-2.723-1.697-4.471
	c0-2.005,0.629-3.559,1.888-4.664c1.26-1.105,2.686-1.657,4.28-1.657c1.644,0,3.031,0.527,4.162,1.58
	C69.265,89.265,69.831,90.846,69.831,92.953"/>
<path fill="#FFB602" d="M89.447,96.07c-1.26,0-2.193,0.335-2.797,1.002c-0.808,0.875-1.211,2.34-1.211,4.394h3.238v8.712h-3.238
	v15.958v2.698c0.154,1.233,0.666,2.107,1.541,2.621v8.788H73.027v-8.788c0.617-0.359,1.014-0.95,1.195-1.773
	c0.18-0.821,0.27-1.824,0.27-3.007v-16.497h-1.465v-8.712h1.465v-3.468c0-3.187,0.514-5.782,1.541-7.786
	c1.285-2.57,3.213-3.855,5.783-3.855c1.797,0,3.211,0.038,4.24,0.115c1.028,0.077,2.159,0.373,3.391,0.887V96.07z"/>
<path fill="#FFB602" d="M116.047,130.882c0,0.619-0.773,6.629-5.551,8.944c-2.241,1.085-5.397,1.694-8.018,1.694
	c-4.06,0-7.144-1.064-9.25-3.199c-2.109-2.132-3.162-5.46-3.162-9.983v-14.493c0-5.088,1.131-8.607,3.393-10.561
	c1.953-1.697,5.215-2.544,9.791-2.544c3.803,0,6.758,0.745,8.865,2.235c2.621,1.851,3.932,4.808,3.932,8.866v12.18h-15.034v3.855
	c0,2.622,0.618,3.932,1.85,3.932c0.721,0,1.221-0.373,1.504-1.118c0.281-0.744,0.424-1.656,0.424-2.736v-1.118v-0.887h11.256
	V130.882z M106.158,115.31c0-3.597-0.722-5.396-2.158-5.396c-0.822,0-1.403,0.438-1.735,1.311c-0.336,0.875-0.502,2.235-0.502,4.086
	H106.158z"/>
<path fill="#5B8EDC" d="M150.447,140.519h-15.727v-9.174c0.617-0.617,1.016-1.322,1.195-2.12c0.18-0.796,0.27-1.734,0.27-2.813
	h-6.244c0,1.285,0.078,2.262,0.23,2.929c0.153,0.669,0.566,1.338,1.233,2.005v9.174h-13.489v-9.637
	c0.512-0.771,0.898-1.515,1.156-2.235c0.255-0.719,0.486-1.773,0.693-3.161l5.088-37.852h17.808l5.552,38.315
	c0.357,2.621,1.104,4.421,2.234,5.396V140.519z M134.962,116.234l-1.773-15.495l-1.926,15.495H134.962z"/>
<path fill="#5B8EDC" d="M176.661,131.064c0.125,4.571-3.035,8.144-5.349,9.068c-2.313,0.926-4.522,1.388-6.63,1.388
	c-3.443,0-6.193-0.668-8.248-2.004c-3.239-2.107-4.857-5.858-4.857-11.256v-14.029c0-4.574,0.821-7.838,2.467-9.791
	c1.85-2.209,5.166-3.315,9.945-3.315c2.98,0,5.551,0.347,7.709,1.04c2.157,0.695,3.855,1.966,5.088,3.816v10.176h-10.254
	c0.051-0.205,0.09-0.475,0.116-0.81c0.026-0.333,0.038-0.731,0.038-1.194c0-1.182-0.154-2.197-0.461-3.045
	c-0.309-0.849-0.825-1.272-1.543-1.272c-0.875,0-1.454,0.399-1.734,1.196c-0.283,0.795-0.425,2.017-0.425,3.66v12.181
	c0,1.851,0.106,3.188,0.315,4.009c0.209,0.823,0.731,1.234,1.57,1.234c1.047,0,1.729-1.002,2.041-3.007
	c0.157-0.977,0.236-1.979,0.236-3.007v-1.272v-0.887h10.1L176.661,131.064z"/>
<path fill="#5B8EDC" d="M196.565,140.056c-0.822,0.309-1.824,0.54-3.006,0.694c-1.184,0.154-2.597,0.231-4.24,0.231
	c-2.363,0-4.24-0.899-5.627-2.697c-1.39-1.8-2.082-4.267-2.082-7.402v-20.43l-3.324-0.037v-8.711l3.324,0.038l-0.365-5.474
	l11.416,0.19l0.205,5.284l9.17-0.082l-0.083,8.75l-9.087,0.043v15.496c0,1.851,0.256,3.213,0.771,4.087
	c0.513,0.874,1.489,1.31,2.929,1.31V140.056z"/>
</svg>
