<?xml version="1.0" encoding="utf-8"?>
<!-- Generator: Adobe Illustrator 16.0.0, SVG Export Plug-In . SVG Version: 6.00 Build 0)  -->
<!DOCTYPE svg PUBLIC "-//W3C//DTD SVG 1.1//EN" "http://www.w3.org/Graphics/SVG/1.1/DTD/svg11.dtd">
<svg version="1.1" id="Layer_1" xmlns="http://www.w3.org/2000/svg" xmlns:xlink="http://www.w3.org/1999/xlink" x="0px" y="0px"
	 width="50px" height="50px" viewBox="0 0 50 50" enable-background="new 0 0 50 50" xml:space="preserve">
<path fill="#FFFFFF" d="M46.626,23.568c0-8.906-9.822-16.125-21.938-16.125S2.751,14.663,2.751,23.568
	c0,8.905,9.822,16.125,21.938,16.125c2.912,0,5.689-0.421,8.232-1.179l11.886,4.042l-3.543-8.433
	C44.602,31.295,46.626,27.606,46.626,23.568z M24.687,33.392c-1.451,0-2.45-1.063-2.417-2.514c0-1.483,0.998-2.515,2.417-2.515
	c1.482,0,2.417,1.031,2.45,2.515C27.137,32.328,26.169,33.392,24.687,33.392z M25.968,25.646H23.41l-1.188-11.98h4.932
	L25.968,25.646z"/>
</svg>
