<?xml version="1.0" encoding="utf-8"?>
<!-- Generator: Adobe Illustrator 16.0.0, SVG Export Plug-In . SVG Version: 6.00 Build 0)  -->
<!DOCTYPE svg PUBLIC "-//W3C//DTD SVG 1.1//EN" "http://www.w3.org/Graphics/SVG/1.1/DTD/svg11.dtd">
<svg version="1.1" id="Layer_1" xmlns="http://www.w3.org/2000/svg" xmlns:xlink="http://www.w3.org/1999/xlink" x="0px" y="0px"
	 width="50px" height="50px" viewBox="0 0 50 50" enable-background="new 0 0 50 50" xml:space="preserve">
<path fill="#FFFFFF" d="M46.626,23.568c0-8.906-9.822-16.125-21.938-16.125S2.751,14.663,2.751,23.568
	c0,8.905,9.822,16.125,21.938,16.125c2.912,0,5.689-0.421,8.232-1.179l11.886,4.042l-3.543-8.433
	C44.602,31.295,46.626,27.606,46.626,23.568z"/>
<path fill="#FBB040" d="M24.685,36.05c-2.366,0-3.996-1.35-3.941-3.191c0-1.883,1.627-3.192,3.941-3.192
	c2.419,0,3.943,1.31,3.997,3.192C28.682,34.7,27.104,36.05,24.685,36.05z"/>
<polygon fill="#FBB040" points="26.775,26.217 22.604,26.217 20.667,11.008 28.71,11.008 "/>
</svg>
